<?xml version="1.0" encoding="UTF-8"?>
<!DOCTYPE svg PUBLIC "-//W3C//DTD SVG 1.1//EN" "http://www.w3.org/Graphics/SVG/1.1/DTD/svg11.dtd">
<svg xmlns="http://www.w3.org/2000/svg" style="background: transparent; background-color: transparent; color-scheme: light dark;" xmlns:xlink="http://www.w3.org/1999/xlink" version="1.1" width="477px" height="477px" viewBox="0 0 477 477"><defs/><g><g data-cell-id="0"><g data-cell-id="1"><g data-cell-id="ZlE1PKhjoeNOFSBTmqBj-9"><g transform="translate(0.5,0.5)"><ellipse cx="237.5" cy="237.5" rx="237.5" ry="237.5" fill="#dae8fc" stroke="#6c8ebf" pointer-events="all" style="fill: rgb(218, 232, 252); stroke: rgb(108, 142, 191);"/></g></g><g data-cell-id="ZlE1PKhjoeNOFSBTmqBj-6"><g transform="translate(0.5,0.5)"><path d="M 238 195 L 358 195 Q 388 195 388 225 Q 388 255 358 255 L 238 255 Z" fill="#d5e8d4" stroke="#82b366" stroke-miterlimit="10" pointer-events="all" style="fill: rgb(213, 232, 212); stroke: rgb(130, 179, 102);"/></g></g><g data-cell-id="ZlE1PKhjoeNOFSBTmqBj-7"><g transform="translate(0.5,0.5)"><path d="M 108 95 L 203 95 Q 228 95 228 120 Q 228 145 203 145 L 108 145 Z" fill="#d5e8d4" stroke="#82b366" stroke-miterlimit="10" transform="rotate(-180,168,120)" pointer-events="all" style="fill: rgb(213, 232, 212); stroke: rgb(130, 179, 102);"/></g></g><g data-cell-id="ZlE1PKhjoeNOFSBTmqBj-8"><g transform="translate(0.5,0.5)"><path d="M 123 350 C 123 341.72 174.49 335 238 335 C 268.5 335 297.75 336.58 319.32 339.39 C 340.88 342.21 353 346.02 353 350 L 353 460 C 353 468.28 301.51 475 238 475 C 174.49 475 123 468.28 123 460 Z" fill="#ffe6cc" stroke="#d79b00" stroke-miterlimit="10" pointer-events="all" style="fill: rgb(255, 230, 204); stroke: rgb(215, 155, 0);"/><path d="M 353 350 C 353 358.28 301.51 365 238 365 C 174.49 365 123 358.28 123 350" fill="none" stroke="#d79b00" stroke-miterlimit="10" pointer-events="all" style="stroke: rgb(215, 155, 0);"/></g></g><g data-cell-id="ZlE1PKhjoeNOFSBTmqBj-5"><g transform="translate(0.5,0.5)"><path d="M 78 165 L 368 165 Q 398 165 398 195 Q 398 225 368 225 L 78 225 Z" fill="#d5e8d4" stroke="#82b366" stroke-miterlimit="10" transform="rotate(-90,238,195)" pointer-events="all" style="fill: rgb(213, 232, 212); stroke: rgb(130, 179, 102);"/></g></g></g></g></g></svg>